<svg width="24" height="24" viewBox="0 0 24 24" fill="none" xmlns="http://www.w3.org/2000/svg">
<path d="M17.5583 10.2777C16.6449 10.187 15.786 9.84835 15.0688 9.32356L14.4326 8.85801V9.64637V14.5362C14.4326 16.7751 12.6308 18.6 10.4163 18.6C8.20065 18.6 6.4 16.7942 6.4 14.5362C6.4 12.4375 7.9486 10.7364 9.93567 10.4999V12.1124C8.81395 12.3372 7.9594 13.3401 7.9594 14.5362C7.9594 15.8859 9.03854 17.0058 10.3962 17.0058C11.7538 17.0058 12.8329 15.8859 12.8329 14.5362V5.4H14.4134C14.5916 7.0845 15.8836 8.44005 17.5583 8.67361V10.2777Z" stroke="#B0B1AF" stroke-width="0.8"/>
</svg>
