<svg width="20" height="20" viewBox="0 0 20 20" fill="none" xmlns="http://www.w3.org/2000/svg">
<mask id="mask0_4356_756201" style="mask-type:alpha" maskUnits="userSpaceOnUse" x="2" y="2" width="16" height="16">
<path fill-rule="evenodd" clip-rule="evenodd" d="M8.50031 2.5H16.0003C16.8646 2.5 17.5004 3.13579 17.5004 4.00001V11.5C17.5004 12.3643 16.8646 13 16.0003 13H13V16C13 16.8642 12.3643 17.5 11.5 17.5H4.00001C3.13579 17.5 2.5 16.8642 2.5 16V8.49993C2.5 7.63571 3.13579 6.99992 4.00001 6.99992H7.0003V4.00001C7.0003 3.13579 7.63609 2.5 8.50031 2.5ZM7.0003 8.49993H4.00001V16H11.5V13H8.50031C7.63609 13 7.0003 12.3643 7.0003 11.5V8.49993ZM8.49959 3.9999V11.4999H15.9996V3.9999H8.49959Z" fill="white"/>
</mask>
<g mask="url(#mask0_4356_756201)">
<rect x="1" y="1" width="18.0001" height="18.0001" fill="#949792"/>
</g>
</svg>
